<svg width="14" height="14" fill="#fff" stroke="#fff" stroke-width=".25" xmlns="http://www.w3.org/2000/svg"><path d="M9.295 3.39l-.001.002a.396.396 0 00.009.394c.062.11.182.209.335.209h2.817v2.337a1.887 1.887 0 00-.69-.137 2.03 2.03 0 000 4.06c.248 0 .478-.057.69-.141v2.341h-8.46V9.638a.395.395 0 00-.206-.335.396.396 0 00-.39-.015h0l-.003.002a1.23 1.23 0 01-1.851-1.065A1.23 1.23 0 012.78 6.99c.229 0 .433.057.616.166h0l.003.001c.13.073.28.049.39-.014a.39.39 0 00.206-.331V3.995h2.817a.393.393 0 00.335-.21.396.396 0 00.009-.393h0l-.001-.002a1.152 1.152 0 01-.165-.61 1.23 1.23 0 011.235-1.235A1.23 1.23 0 019.46 2.78c0 .23-.057.433-.165.61zM8.225.75c-1.12 0-2.03.915-2.03 2.03 0 .148.018.287.049.42H3.595a.395.395 0 00-.276.12.395.395 0 00-.119.275v2.649a1.868 1.868 0 00-.42-.049c-1.115 0-2.03.91-2.03 2.03 0 1.12.915 2.03 2.03 2.03.148 0 .287-.018.42-.049v2.649c0 .108.05.207.12.276a.39.39 0 00.275.119h9.26c.108 0 .207-.05.276-.12a.39.39 0 00.119-.275V9.44c0-.153-.09-.3-.233-.364a.4.4 0 00-.43.07 1.226 1.226 0 01-.822.314 1.227 1.227 0 01-1.235-1.235c0-.688.547-1.235 1.235-1.235.316 0 .604.114.822.31a.392.392 0 00.425.07.405.405 0 00.238-.36V3.595a.395.395 0 00-.12-.276.395.395 0 00-.275-.119h-2.649c.03-.133.049-.272.049-.42 0-1.115-.91-2.03-2.03-2.03z"/></svg>