<svg width="134" height="52" fill="none" xmlns="http://www.w3.org/2000/svg"><path d="M67.507 21.523v2.312H56.135V7.25h11.161v2.313H58.75v4.718h7.402v2.173H58.75v5.069h8.757zm6.67 2.546a9.69 9.69 0 01-2.942-.467c-.965-.327-1.798-.787-2.498-1.378l1.027-1.636c.732.53 1.455.935 2.171 1.215a6.282 6.282 0 002.195.397c.763 0 1.362-.148 1.798-.444.452-.296.677-.716.677-1.261 0-.514-.249-.888-.747-1.121-.498-.234-1.276-.49-2.335-.771a29.37 29.37 0 01-1.961-.584c-.545-.187-.989-.405-1.331-.654a2.296 2.296 0 01-.747-.865c-.156-.327-.234-.724-.234-1.19 0-.624.117-1.177.35-1.66a3.624 3.624 0 011.005-1.214c.435-.343.941-.6 1.517-.771a6.526 6.526 0 011.868-.257c.919 0 1.775.14 2.569.42.794.28 1.502.686 2.124 1.215l-1.097 1.542c-1.136-.903-2.343-1.355-3.62-1.355-.653 0-1.206.14-1.657.42-.436.265-.654.694-.654 1.285 0 .25.047.46.14.631.094.171.242.32.444.444.218.124.49.241.817.35.343.094.763.203 1.261.327.825.203 1.533.405 2.125.608.607.202 1.105.443 1.494.724.39.265.677.584.864.958.187.358.28.794.28 1.308 0 1.168-.443 2.094-1.33 2.78-.872.67-2.063 1.004-3.573 1.004zm6.353-6.354c0-.856.148-1.666.444-2.43a6.1 6.1 0 011.26-2.008 6.018 6.018 0 012.009-1.355c.778-.343 1.65-.514 2.615-.514 1.26 0 2.343.28 3.245.841.919.545 1.604 1.277 2.055 2.196l-2.498.794a3.127 3.127 0 00-1.19-1.191 3.186 3.186 0 00-1.659-.444c-.513 0-.996.101-1.447.304-.436.202-.818.49-1.145.864a3.925 3.925 0 00-.77 1.285 4.693 4.693 0 00-.28 1.658c0 .592.093 1.145.28 1.659.202.498.467.934.794 1.308.342.373.731.67 1.167.887a3.44 3.44 0 001.425.304c.31 0 .622-.039.934-.117.31-.093.591-.218.84-.373.265-.156.49-.335.677-.538.203-.202.35-.42.444-.654l2.522.748c-.405.919-1.082 1.674-2.032 2.266-.95.576-2.07.864-3.362.864-.95 0-1.814-.171-2.592-.514a6.316 6.316 0 01-2.008-1.378 6.722 6.722 0 01-1.284-2.032 6.662 6.662 0 01-.444-2.43zm17.083 6.354a4.812 4.812 0 01-1.658-.28 4.322 4.322 0 01-1.308-.818 4.008 4.008 0 01-.864-1.215 3.778 3.778 0 01-.303-1.518c0-.576.124-1.098.373-1.565.25-.467.6-.872 1.051-1.215a5.322 5.322 0 011.635-.794 7.456 7.456 0 012.101-.28c.576 0 1.144.054 1.705.163.56.094 1.066.226 1.517.397v-.84c0-.904-.257-1.605-.77-2.103-.514-.514-1.253-.77-2.218-.77-.654 0-1.3.124-1.938.373a9.403 9.403 0 00-1.939 1.028l-.793-1.636c1.572-1.059 3.206-1.588 4.903-1.588 1.681 0 2.989.428 3.923 1.285.934.856 1.401 2.087 1.401 3.69V20.8c0 .545.225.825.677.84v2.196a6.577 6.577 0 01-.654.094 5.685 5.685 0 01-.514.023c-.498 0-.887-.125-1.167-.374a1.623 1.623 0 01-.49-.957l-.071-.771a5.516 5.516 0 01-2.031 1.658 5.95 5.95 0 01-2.568.56zm.7-1.892c.623 0 1.206-.11 1.751-.327.561-.234.997-.553 1.308-.958.327-.28.49-.576.49-.888v-1.612a7.717 7.717 0 00-1.401-.397 7.48 7.48 0 00-1.424-.14c-.919 0-1.674.203-2.265.608-.576.389-.864.91-.864 1.565 0 .607.226 1.121.677 1.541.452.405 1.028.608 1.728.608zm16.169 1.892c-.981 0-1.845-.234-2.592-.7a5.234 5.234 0 01-1.775-1.823v7.265h-2.568V11.618h2.265v2.196a5.367 5.367 0 011.798-1.752c.747-.436 1.587-.654 2.521-.654.841 0 1.611.171 2.312.514a5.88 5.88 0 011.821 1.378 6.185 6.185 0 011.191 2.01c.296.762.444 1.564.444 2.405 0 .888-.133 1.72-.397 2.5a6.338 6.338 0 01-1.121 2.009 5.667 5.667 0 01-1.728 1.354 4.787 4.787 0 01-2.171.49zm-.841-2.196a3.07 3.07 0 001.471-.35 3.515 3.515 0 001.144-.935c.327-.389.576-.833.747-1.331a4.692 4.692 0 00.257-1.542c0-.56-.101-1.09-.303-1.588a3.996 3.996 0 00-.794-1.308 3.568 3.568 0 00-2.709-1.215 3.11 3.11 0 00-1.027.187 4.075 4.075 0 00-1.004.514 3.814 3.814 0 00-.817.77c-.234.28-.397.592-.491.935v3.2c.156.374.358.724.607 1.051.249.327.522.608.818.841.311.234.646.42 1.004.56.358.141.723.211 1.097.211zm14.101 2.196c-.949 0-1.813-.164-2.591-.49a6.304 6.304 0 01-2.008-1.379 6.44 6.44 0 01-1.285-2.009 6.679 6.679 0 01-.443-2.43c0-.856.148-1.665.443-2.429a6.372 6.372 0 011.285-2.032 5.843 5.843 0 012.008-1.378c.778-.343 1.65-.514 2.615-.514.949 0 1.805.171 2.568.514.779.342 1.44.802 1.985 1.378.545.56.957 1.223 1.237 1.986a6.35 6.35 0 01.421 2.896 9.638 9.638 0 01-.047.397h-9.783c.046.546.171 1.036.373 1.472.218.436.491.818.817 1.145.343.311.724.552 1.145.724.435.171.887.257 1.354.257a4.32 4.32 0 001.004-.117c.342-.093.654-.218.934-.374.28-.171.529-.373.747-.607a2.79 2.79 0 00.514-.771l2.195.63c-.421.92-1.121 1.675-2.102 2.267-.965.576-2.094.864-3.386.864zm3.713-7.265a3.964 3.964 0 00-.397-1.425 3.37 3.37 0 00-.794-1.098 3.491 3.491 0 00-1.144-.724 3.733 3.733 0 00-1.378-.257c-.482 0-.941.086-1.377.257-.42.171-.794.413-1.121.724a3.384 3.384 0 00-.794 1.098 4.27 4.27 0 00-.373 1.425h7.378zm-75.32 30.391V30.61h7.215c.747 0 1.432.155 2.055.467a5.162 5.162 0 011.635 1.238 5.42 5.42 0 011.05 1.729 5.08 5.08 0 01.397 1.962c0 .56-.078 1.098-.233 1.611a5.652 5.652 0 01-.654 1.425c-.28.436-.623.818-1.027 1.145a4.366 4.366 0 01-1.331.7l3.899 6.308h-2.965l-3.596-5.77h-3.83v5.77h-2.615zm2.615-8.083h4.577a2.12 2.12 0 001.004-.233 2.56 2.56 0 00.794-.677 3.728 3.728 0 00.7-2.196c0-.42-.078-.818-.233-1.192a3.1 3.1 0 00-.584-.98 2.458 2.458 0 00-.84-.655 2.006 2.006 0 00-.981-.257H58.75v6.19zm17.64 8.316c-.965 0-1.836-.17-2.615-.513a6.111 6.111 0 01-1.96-1.379 6.102 6.102 0 01-1.262-2.008 6.787 6.787 0 01-.443-2.43 6.6 6.6 0 01.443-2.406 6.05 6.05 0 011.261-2.032 6.39 6.39 0 011.985-1.378c.778-.343 1.642-.514 2.592-.514.95 0 1.805.17 2.568.514.778.342 1.44.802 1.985 1.378a5.87 5.87 0 011.284 2.032c.296.763.444 1.565.444 2.406 0 .841-.148 1.65-.444 2.43a5.916 5.916 0 01-1.284 2.008 6.046 6.046 0 01-1.985 1.379c-.763.342-1.619.514-2.568.514zm-3.642-6.307c0 .592.093 1.137.28 1.636.187.498.444.934.77 1.308.328.358.71.646 1.145.864.451.203.934.304 1.448.304a3.34 3.34 0 001.424-.304c.451-.218.84-.514 1.167-.888a4.21 4.21 0 00.77-1.308 4.594 4.594 0 00.281-1.635c0-.576-.093-1.113-.28-1.612a4.152 4.152 0 00-.77-1.331 3.36 3.36 0 00-1.168-.864 3.138 3.138 0 00-1.424-.328c-.499 0-.973.11-1.425.328a3.717 3.717 0 00-1.144.887 4.511 4.511 0 00-.794 1.332 4.555 4.555 0 00-.28 1.611zm17.689 6.307c-.965 0-1.837-.17-2.615-.513a6.111 6.111 0 01-1.962-1.379 6.102 6.102 0 01-1.26-2.008 6.787 6.787 0 01-.444-2.43 6.6 6.6 0 01.443-2.406 6.05 6.05 0 011.261-2.032 6.39 6.39 0 011.985-1.378c.778-.343 1.642-.514 2.592-.514.95 0 1.806.17 2.568.514.779.342 1.44.802 1.985 1.378a5.87 5.87 0 011.284 2.032c.296.763.444 1.565.444 2.406 0 .841-.148 1.65-.444 2.43a5.916 5.916 0 01-1.284 2.008 6.046 6.046 0 01-1.985 1.379c-.762.342-1.619.514-2.568.514zm-3.643-6.307c0 .592.094 1.137.28 1.636.187.498.444.934.771 1.308.327.358.708.646 1.144.864.452.203.934.304 1.448.304a3.34 3.34 0 001.424-.304 3.64 3.64 0 001.168-.888c.327-.373.583-.81.77-1.308.187-.498.28-1.043.28-1.635 0-.576-.093-1.113-.28-1.612a4.15 4.15 0 00-.77-1.331 3.36 3.36 0 00-1.168-.864 3.138 3.138 0 00-1.424-.328c-.498 0-.973.11-1.424.328a3.717 3.717 0 00-1.145.887 4.511 4.511 0 00-.793 1.332 4.555 4.555 0 00-.28 1.611zm30.882 6.074h-2.569V40.35c0-1.137-.187-1.97-.56-2.5-.374-.53-.919-.794-1.635-.794-.731 0-1.401.272-2.008.817-.591.53-1.019 1.223-1.284 2.08v7.24h-2.569V40.35c0-1.153-.186-1.986-.56-2.5-.374-.53-.911-.794-1.611-.794-.732 0-1.401.265-2.008.794-.607.53-1.043 1.223-1.308 2.08v7.264h-2.568V34.978h2.335v2.453c.482-.857 1.113-1.511 1.891-1.963.794-.467 1.697-.7 2.709-.7s1.805.264 2.381.794c.592.53.958 1.191 1.098 1.985.513-.903 1.159-1.588 1.938-2.055.778-.483 1.665-.724 2.662-.724.716 0 1.307.14 1.774.42.483.265.864.623 1.144 1.075.281.451.475.98.584 1.588.109.592.164 1.223.164 1.892v7.452z" fill="#fff"/><path fill="#fff" d="M46.048 21.536h21.574v2.288H46.048zm.007 9.026h16.021v2.281H46.055z"/><path fill-rule="evenodd" clip-rule="evenodd" d="M28.906 42.5l-16.617-8.608.287-.54 16.617 8.609-.287.539zm9.877-8.435V16.153h.618v17.912h-.618zm-.309-11.135L29.13 28.4l-.267-.562 9.295-5.431.316.524zm-.936-7.367l-9.181-5.232-11.532 6.696 8.981 5.15 11.732-6.614zm-9.184-5.938L15.601 17.03l10.202 5.85 12.98-7.317-.536-.3-9.893-5.638z" fill="#fff"/><path d="M12.387 33.927l-.264-.153-.154-11.655-7.73-4.495m8.148 16.303l10.198-5.797m-10.198 5.797l10.198 5.298m.513-11.387V39.41l-.513-.186m.513-11.387L4.24 17.03v-3.062l.464-.305L25.88 1.703 46.729 14.12v7.388h.672l.024-7.797L25.881 1 4.378 13.144l-.756.498v25.141L26.345 51l2.318-1.253v.012l.455-.258.24-.13v-.006L47.347 38.85l.026-7.494h-.643v7.14L29.282 48.707v-6.171l12.751-7.081-13.17-7.616m-5.765 0l-.513.292m6.278-.292l-.122.07V49.01l-2.396 1.295L4.24 38.421V17.624m24.623 10.214l.267.561 9.344-5.468-.316-.524-9.295 5.43zM4.24 17.624v-.228M22.585 28.13v11.095m15.662-23.962l-9.893-5.638-12.753 7.405 10.202 5.85 12.98-7.317-.536-.3zM21.864 27.836l-9.132 5.191-.14-10.505 9.272 5.314zm18.963 7.635l-11.468 6.301V28.823l11.468 6.648zm-12.47-25.14l9.18 5.232-11.73 6.614-8.982-5.15 11.532-6.696zm-16.068 23.56L28.906 42.5l.288-.54-16.618-8.608-.287.54zm26.494-17.738v17.912h.618V16.153h-.618z" stroke="#fff" stroke-width="1.5"/></svg>