<svg width="11" height="14" fill="none" stroke="#fff" stroke-miterlimit="10" stroke-linecap="round" stroke-linejoin="round" xmlns="http://www.w3.org/2000/svg"><path d="M7.524 8.924h.837c.941 0 1.861.71 1.705 1.624l-.17.865c-.235 1.008-.764 1.624-1.706 1.712H2.82c-.94-.088-1.448-.855-1.704-1.712l-.171-.865c-.207-.886.764-1.624 1.705-1.624h.814m-.852-5.116c-.193 0-.385.165-.385.367v.733c0 .203.172.367.385.367 0 0 .578 1.467.963 2.017.238.34.577 1.16 1.925 1.16s1.687-.82 1.926-1.16c.385-.55.963-2.017.963-2.017a.377.377 0 00.385-.367v-.733a.377.377 0 00-.385-.367v-.55C8.389 1.975 7.626.875 5.5.875c-2.118 0-2.888 1.1-2.888 2.383v.55z"/></svg>